<svg width="250" height="77" viewBox="0 0 250 77" fill="none" xmlns="http://www.w3.org/2000/svg">
<path d="M31.0909 27.0909C30.8182 24.7879 29.7121 23 27.7727 21.7273C25.8333 20.4545 23.4545 19.8182 20.6364 19.8182C18.5758 19.8182 16.7727 20.1515 15.2273 20.8182C13.697 21.4848 12.5 22.4015 11.6364 23.5682C10.7879 24.7348 10.3636 26.0606 10.3636 27.5455C10.3636 28.7879 10.6591 29.8561 11.25 30.75C11.8561 31.6288 12.6288 32.3636 13.5682 32.9545C14.5076 33.5303 15.4924 34.0076 16.5227 34.3864C17.553 34.75 18.5 35.0455 19.3636 35.2727L24.0909 36.5455C25.303 36.8636 26.6515 37.303 28.1364 37.8636C29.6364 38.4242 31.0682 39.1894 32.4318 40.1591C33.8106 41.1136 34.947 42.3409 35.8409 43.8409C36.7349 45.3409 37.1818 47.1818 37.1818 49.3636C37.1818 51.8788 36.5227 54.1515 35.2045 56.1818C33.9015 58.2121 31.9924 59.8258 29.4773 61.0227C26.9773 62.2197 23.9394 62.8182 20.3636 62.8182C17.0303 62.8182 14.1439 62.2803 11.7045 61.2045C9.2803 60.1288 7.37121 58.6288 5.97727 56.7045C4.59848 54.7803 3.81818 52.5455 3.63636 50H9.45455C9.60606 51.7576 10.197 53.2121 11.2273 54.3636C12.2727 55.5 13.5909 56.3485 15.1818 56.9091C16.7879 57.4545 18.5152 57.7273 20.3636 57.7273C22.5152 57.7273 24.447 57.3788 26.1591 56.6818C27.8712 55.9697 29.2273 54.9848 30.2273 53.7273C31.2273 52.4545 31.7273 50.9697 31.7273 49.2727C31.7273 47.7273 31.2955 46.4697 30.4318 45.5C29.5682 44.5303 28.4318 43.7424 27.0227 43.1364C25.6136 42.5303 24.0909 42 22.4545 41.5455L16.7273 39.9091C13.0909 38.8636 10.2121 37.3712 8.09091 35.4318C5.9697 33.4924 4.90909 30.9545 4.90909 27.8182C4.90909 25.2121 5.61364 22.9394 7.02273 21C8.44697 19.0455 10.3561 17.5303 12.75 16.4545C15.1591 15.3636 17.8485 14.8182 20.8182 14.8182C23.8182 14.8182 26.4848 15.3561 28.8182 16.4318C31.1515 17.4924 33 18.947 34.3636 20.7955C35.7424 22.6439 36.4697 24.7424 36.5455 27.0909H31.0909Z" fill="#F8F8F8"/>
<path d="M46.0909 20.4545V15.4545H81V20.4545H66.3636V62H60.7273V20.4545H46.0909Z" fill="#F8F8F8"/>
<path d="M92.6364 62V15.4545H108.364C112 15.4545 114.985 16.0758 117.318 17.3182C119.652 18.5455 121.379 20.2348 122.5 22.3864C123.621 24.5379 124.182 26.9848 124.182 29.7273C124.182 32.4697 123.621 34.9015 122.5 37.0227C121.379 39.1439 119.659 40.8106 117.341 42.0227C115.023 43.2197 112.061 43.8182 108.455 43.8182H95.7273V38.7273H108.273C110.758 38.7273 112.758 38.3636 114.273 37.6364C115.803 36.9091 116.909 35.8788 117.591 34.5455C118.288 33.197 118.636 31.5909 118.636 29.7273C118.636 27.8636 118.288 26.2348 117.591 24.8409C116.894 23.447 115.78 22.3712 114.25 21.6136C112.72 20.8409 110.697 20.4545 108.182 20.4545H98.2727V62H92.6364ZM114.545 41.0909L126 62H119.455L108.182 41.0909H114.545Z" fill="#F8F8F8"/>
<path d="M142.273 15.4545V62H136.636V15.4545H142.273Z" fill="#F8F8F8"/>
<path fill-rule="evenodd" clip-rule="evenodd" d="M151 15H235V62H234.091V57H211.273V41.1818H232.273V36.1818H211.273V20.4545H233.727V15.4545H205.636V62H170C174.727 62 178.742 61.0682 182.045 59.2045C185.348 57.3258 187.864 54.6439 189.591 51.1591C191.318 47.6591 192.182 43.4848 192.182 38.6364C192.182 33.8182 191.326 29.6818 189.614 26.2273C187.902 22.7576 185.439 20.0985 182.227 18.25C179.015 16.3864 175.152 15.4545 170.636 15.4545H155.636V62H151V15ZM161.273 57H169.636C173.485 57 176.674 56.2576 179.205 54.7727C181.735 53.2879 183.621 51.1742 184.864 48.4318C186.106 45.6894 186.727 42.4242 186.727 38.6364C186.727 34.8788 186.114 31.6439 184.886 28.9318C183.659 26.2045 181.826 24.1136 179.386 22.6591C176.947 21.1894 173.909 20.4545 170.273 20.4545H161.273V57Z" fill="#F8F8F8"/>
</svg>
